<!-- <svg xmlns="http://www.w3.org/2000/svg" viewBox="0 0 1440 320"><path fill="#41bd8444" fill-opacity="1" d="M0,192L1440,32L1440,320L0,320Z"></path></svg> -->


<svg width="100%" height="100%" id="svg" viewBox="0 0 1440 400" xmlns="http://www.w3.org/2000/svg" class="transition duration-300 ease-in-out delay-150"><defs><linearGradient id="gradient" x1="50%" y1="100%" x2="50%" y2="0%"><stop offset="5%" stop-color="#41bd8444"></stop><stop offset="95%" stop-color="#32ded444"></stop></linearGradient></defs><path d="M 0,400 C 0,400 0,133 0,133 C 46.58316082865993,110.10292729658467 93.16632165731986,87.20585459316933 143,86 C 192.83367834268014,84.79414540683067 245.91787419938055,105.27950892390729 283,122 C 320.08212580061945,138.7204910760927 341.1621815451579,151.6761097112015 374,157 C 406.8378184548421,162.3238902887985 451.433399619988,160.01605223128672 499,166 C 546.566600380012,171.98394776871328 597.1042199748902,186.25968136365165 644,176 C 690.8957800251098,165.74031863634835 734.1497204804514,130.94522231410667 773,114 C 811.8502795195486,97.05477768589333 846.2968981033046,97.95942937992169 896,117 C 945.7031018966954,136.0405706200783 1010.6626871063308,173.21706016620655 1061,176 C 1111.3373128936692,178.78293983379345 1147.0523534713725,147.17232995525208 1184,138 C 1220.9476465286275,128.82767004474792 1259.1278990081792,142.09362001278512 1302,145 C 1344.8721009918208,147.90637998721488 1392.4360504959104,140.45318999360745 1440,133 C 1440,133 1440,400 1440,400 Z" stroke="none" stroke-width="0" fill="url(#gradient)" class="transition-all duration-300 ease-in-out delay-150 path-0"></path><defs><linearGradient id="gradient" x1="50%" y1="100%" x2="50%" y2="0%"><stop offset="5%" stop-color="#41bd8444"></stop><stop offset="95%" stop-color="#32ded444"></stop></linearGradient></defs><path d="M 0,400 C 0,400 0,266 0,266 C 55.607897024892026,246.5038541292218 111.21579404978405,227.0077082584436 146,231 C 180.78420595021595,234.9922917415564 194.74472082575585,262.47302109544745 241,256 C 287.25527917424415,249.52697890455255 365.80532264719267,209.10020735976659 414,218 C 462.19467735280733,226.89979264023341 480.0339885854735,285.1261494654864 515,290 C 549.9660114145265,294.8738505345136 602.0587230109135,246.39519477828796 655,246 C 707.9412769890865,245.60480522171204 761.731119370873,293.2930714213618 807,293 C 852.268880629127,292.7069285786382 889.0167995055949,244.43251953626495 923,220 C 956.9832004944051,195.56748046373505 988.2016826067479,194.97685043357842 1028,219 C 1067.798317393252,243.02314956642158 1116.176470067414,291.6600787294212 1165,300 C 1213.823529932586,308.3399212705788 1263.092437123596,276.3828346487368 1309,264 C 1354.907562876404,251.6171653512632 1397.453781438202,258.8085826756316 1440,266 C 1440,266 1440,400 1440,400 Z" stroke="none" stroke-width="0" fill="url(#gradient)" class="transition-all duration-300 ease-in-out delay-150 path-1"></path></svg>